<svg width="1000" height="286" viewBox="0 0 1000 286" fill="none" xmlns="http://www.w3.org/2000/svg">
<path d="M280.4 246C267.733 246 256.867 243.933 247.8 239.8C238.867 235.667 231.867 229.6 226.8 221.6C221.867 213.6 219.133 203.667 218.6 191.8C218.467 186.333 218.4 180.467 218.4 174.2C218.4 167.933 218.467 161.933 218.6 156.2C219.133 144.6 221.933 134.8 227 126.8C232.067 118.667 239.133 112.533 248.2 108.4C257.267 104.133 268 102 280.4 102C289.2 102 297.333 103.133 304.8 105.4C312.267 107.533 318.8 110.733 324.4 115C330 119.133 334.333 124.2 337.4 130.2C340.6 136.067 342.267 142.733 342.4 150.2C342.533 151.4 342.133 152.4 341.2 153.2C340.4 154 339.4 154.4 338.2 154.4H311.2C309.467 154.4 308.133 154.067 307.2 153.4C306.267 152.6 305.467 151.2 304.8 149.2C302.933 142.133 299.867 137.333 295.6 134.8C291.467 132.133 286.333 130.8 280.2 130.8C272.867 130.8 267.067 132.867 262.8 137C258.533 141 256.2 147.733 255.8 157.2C255.4 168.133 255.4 179.333 255.8 190.8C256.2 200.267 258.533 207.067 262.8 211.2C267.067 215.2 272.867 217.2 280.2 217.2C286.333 217.2 291.533 215.867 295.8 213.2C300.067 210.533 303.067 205.733 304.8 198.8C305.333 196.8 306.067 195.467 307 194.8C308.067 194 309.467 193.6 311.2 193.6H338.2C339.4 193.6 340.4 194 341.2 194.8C342.133 195.6 342.533 196.6 342.4 197.8C342.267 205.267 340.6 212 337.4 218C334.333 223.867 330 228.933 324.4 233.2C318.8 237.333 312.267 240.533 304.8 242.8C297.333 244.933 289.2 246 280.4 246ZM366.23 244C364.763 244 363.563 243.533 362.63 242.6C361.696 241.667 361.23 240.467 361.23 239V107C361.23 105.533 361.696 104.333 362.63 103.4C363.563 102.467 364.763 102 366.23 102H391.83C393.296 102 394.496 102.467 395.43 103.4C396.363 104.333 396.83 105.533 396.83 107V151.6C400.43 147.467 404.83 144.2 410.03 141.8C415.363 139.267 421.496 138 428.43 138C436.163 138 443.03 139.733 449.03 143.2C455.163 146.667 459.963 151.8 463.43 158.6C466.896 165.267 468.63 173.467 468.63 183.2V239C468.63 240.467 468.163 241.667 467.23 242.6C466.296 243.533 465.096 244 463.63 244H437.83C436.496 244 435.296 243.533 434.23 242.6C433.296 241.667 432.83 240.467 432.83 239V184.4C432.83 178.133 431.296 173.333 428.23 170C425.296 166.533 420.896 164.8 415.03 164.8C409.563 164.8 405.163 166.533 401.83 170C398.496 173.333 396.83 178.133 396.83 184.4V239C396.83 240.467 396.363 241.667 395.43 242.6C394.496 243.533 393.296 244 391.83 244H366.23ZM539.308 246C523.574 246 511.041 241.733 501.708 233.2C492.374 224.667 487.508 212 487.108 195.2C487.108 194.267 487.108 193.067 487.108 191.6C487.108 190.133 487.108 189 487.108 188.2C487.508 177.667 489.841 168.667 494.108 161.2C498.508 153.6 504.508 147.867 512.108 144C519.841 140 528.841 138 539.108 138C550.841 138 560.508 140.333 568.108 145C575.841 149.667 581.641 156 585.508 164C589.374 172 591.308 181.133 591.308 191.4V196.2C591.308 197.667 590.774 198.867 589.708 199.8C588.774 200.733 587.641 201.2 586.308 201.2H522.308C522.308 201.333 522.308 201.533 522.308 201.8C522.308 202.067 522.308 202.333 522.308 202.6C522.441 206.467 523.108 210 524.308 213.2C525.508 216.4 527.374 218.933 529.908 220.8C532.441 222.667 535.508 223.6 539.108 223.6C541.774 223.6 543.974 223.2 545.708 222.4C547.574 221.467 549.108 220.467 550.308 219.4C551.508 218.2 552.441 217.2 553.108 216.4C554.308 215.067 555.241 214.267 555.908 214C556.708 213.6 557.908 213.4 559.508 213.4H584.308C585.641 213.4 586.708 213.8 587.508 214.6C588.441 215.267 588.841 216.267 588.708 217.6C588.574 219.867 587.441 222.6 585.308 225.8C583.174 229 580.041 232.2 575.908 235.4C571.908 238.467 566.841 241 560.708 243C554.574 245 547.441 246 539.308 246ZM522.308 181.4H556.108V181C556.108 176.733 555.441 173 554.108 169.8C552.908 166.6 550.974 164.133 548.308 162.4C545.774 160.667 542.708 159.8 539.108 159.8C535.508 159.8 532.441 160.667 529.908 162.4C527.508 164.133 525.641 166.6 524.308 169.8C522.974 173 522.308 176.733 522.308 181V181.4ZM615.058 244C613.591 244 612.391 243.533 611.458 242.6C610.524 241.667 610.058 240.467 610.058 239V145C610.058 143.667 610.524 142.533 611.458 141.6C612.391 140.533 613.591 140 615.058 140H638.058C639.524 140 640.724 140.533 641.658 141.6C642.591 142.533 643.058 143.667 643.058 145V153C646.658 148.867 650.924 145.667 655.858 143.4C660.924 141.133 666.591 140 672.858 140H681.658C682.991 140 684.124 140.467 685.058 141.4C686.124 142.333 686.658 143.533 686.658 145V165.6C686.658 166.933 686.124 168.133 685.058 169.2C684.124 170.133 682.991 170.6 681.658 170.6H662.258C656.791 170.6 652.524 172.133 649.458 175.2C646.524 178.133 645.058 182.333 645.058 187.8V239C645.058 240.467 644.524 241.667 643.458 242.6C642.524 243.533 641.324 244 639.858 244H615.058ZM705.878 244C704.411 244 703.211 243.533 702.278 242.6C701.345 241.667 700.878 240.467 700.878 239V145C700.878 143.667 701.345 142.533 702.278 141.6C703.211 140.533 704.411 140 705.878 140H728.878C730.345 140 731.545 140.533 732.478 141.6C733.411 142.533 733.878 143.667 733.878 145V153C737.478 148.867 741.745 145.667 746.678 143.4C751.745 141.133 757.411 140 763.678 140H772.478C773.811 140 774.945 140.467 775.878 141.4C776.945 142.333 777.478 143.533 777.478 145V165.6C777.478 166.933 776.945 168.133 775.878 169.2C774.945 170.133 773.811 170.6 772.478 170.6H753.078C747.611 170.6 743.345 172.133 740.278 175.2C737.345 178.133 735.878 182.333 735.878 187.8V239C735.878 240.467 735.345 241.667 734.278 242.6C733.345 243.533 732.145 244 730.678 244H705.878ZM796.698 244C795.232 244 794.032 243.533 793.098 242.6C792.165 241.667 791.698 240.467 791.698 239V145C791.698 143.667 792.165 142.533 793.098 141.6C794.032 140.533 795.232 140 796.698 140H819.698C821.165 140 822.365 140.533 823.298 141.6C824.232 142.533 824.698 143.667 824.698 145V153C828.298 148.867 832.565 145.667 837.498 143.4C842.565 141.133 848.232 140 854.498 140H863.298C864.632 140 865.765 140.467 866.698 141.4C867.765 142.333 868.298 143.533 868.298 145V165.6C868.298 166.933 867.765 168.133 866.698 169.2C865.765 170.133 864.632 170.6 863.298 170.6H843.898C838.432 170.6 834.165 172.133 831.098 175.2C828.165 178.133 826.698 182.333 826.698 187.8V239C826.698 240.467 826.165 241.667 825.098 242.6C824.165 243.533 822.965 244 821.498 244H796.698ZM901.919 282C900.719 282 899.719 281.6 898.919 280.8C898.119 280 897.719 279 897.719 277.8C897.719 277.533 897.719 277.133 897.719 276.6C897.852 276.2 898.052 275.733 898.319 275.2L913.919 237.6L875.519 146.8C875.119 145.867 874.919 145.067 874.919 144.4C875.185 143.2 875.719 142.2 876.519 141.4C877.319 140.467 878.319 140 879.519 140H902.319C904.052 140 905.319 140.467 906.119 141.4C907.052 142.2 907.652 143.133 907.919 144.2L930.919 202.4L954.319 144.2C954.852 143.133 955.519 142.2 956.319 141.4C957.252 140.467 958.585 140 960.319 140H982.719C983.919 140 984.919 140.467 985.719 141.4C986.652 142.2 987.119 143.133 987.119 144.2C987.119 144.867 986.919 145.733 986.519 146.8L929.919 277.8C929.519 278.867 928.852 279.8 927.919 280.6C926.985 281.533 925.652 282 923.919 282H901.919Z" fill="black"/>
<circle cx="96" cy="172.08" r="83.5" fill="#F72020" stroke="#F62020" stroke-width="25"/>
<path d="M23 192C33.5 224.5 57 238 73.5 245.5" stroke="white" stroke-width="10" stroke-linecap="round"/>
<path d="M103.286 109.223C103.286 109.223 99.0586 46.8683 152.619 9.78851" stroke="black" stroke-width="12" stroke-linecap="round"/>
<path d="M102.849 112.355L122.945 103.349" stroke="black" stroke-width="12" stroke-linecap="round"/>
<path d="M101.73 112.359L83.1242 100.305" stroke="black" stroke-width="12" stroke-linecap="round"/>
</svg>
